<svg width="343" height="643" viewBox="0 0 343 643" fill="none" xmlns="http://www.w3.org/2000/svg">
<path fill-rule="evenodd" clip-rule="evenodd" d="M135 39.1903H16C8.22718 39.1903 2 45.346 2 52.8493V627.341C2 634.844 8.22719 641 16 641H327C334.773 641 341 634.844 341 627.341V52.8493C341 45.346 334.773 39.1903 327 39.1903H207V37.1903C207 17.7956 190.923 2 171 2C151.077 2 135 17.7956 135 37.1903V39.1903ZM209 37.1903C209 16.6506 191.987 0 171 0C150.013 0 133 16.6506 133 37.1903H16C7.16344 37.1903 0 44.2011 0 52.8493V627.341C0 635.989 7.16345 643 16 643H327C335.837 643 343 635.989 343 627.341V52.8493C343 44.2011 335.837 37.1903 327 37.1903H209Z" fill="#F82225"/>
</svg>
